<svg width="64" height="64" viewBox="0 0 64 64" fill="none" xmlns="http://www.w3.org/2000/svg">
<rect width="64" height="64" fill="#111827"/>
<path d="M43.8555 38.2603C43.9938 38.2603 44.2191 38.311 44.3516 38.3755C44.4957 38.44 44.6229 38.556 44.6689 38.6655C44.7091 38.7624 44.749 39.0331 44.749 39.2778C44.749 39.6258 44.7148 39.7807 44.5879 40.064C44.4842 40.2959 44.2993 40.5343 44.04 40.7856C43.8268 40.9919 43.5386 41.2371 43.4062 41.3335C43.2738 41.4303 43.0484 41.6098 42.9102 41.7388C42.7663 41.8611 42.5245 42.1835 42.3633 42.4478C42.2017 42.7117 41.9826 43.0925 41.873 43.2856C41.7694 43.4789 41.5557 43.9304 41.4004 44.2847C41.2503 44.6392 41.0262 45.2767 40.9053 45.7017C40.6921 46.4426 40.6855 46.5134 40.6855 47.3765C40.6855 48.24 40.692 48.2983 40.8477 48.6655C40.9627 48.936 41.0256 49.1941 41.043 49.5034C41.0603 49.7545 41.0435 50.1415 41.0088 50.3735C40.9741 50.6055 40.8646 50.9979 40.7666 51.2427C40.6685 51.494 40.507 51.8223 40.4033 51.9771C40.3053 52.1316 40.052 52.4797 39.8447 52.7505C39.6315 53.021 39.3373 53.376 39.1816 53.5435C39.026 53.711 38.766 53.949 38.6104 54.0776C38.4492 54.2 38.1039 54.3936 37.8447 54.4966C37.5854 54.6061 37.1299 54.7352 36.8359 54.7935C36.4786 54.8642 36.133 54.8894 35.7871 54.8638C35.3433 54.8315 35.2103 54.7999 34.8643 54.6001C34.6396 54.4777 34.2368 54.2129 33.9717 54.0132C33.7008 53.8135 33.2971 53.5558 33.0781 53.4399C32.7899 53.2915 32.5016 53.0599 32.0693 52.6216C31.7352 52.2867 31.3315 51.9072 31.1758 51.7847C31.0144 51.6557 30.7552 51.4946 30.5996 51.4106C30.4382 51.3333 30.2189 51.2045 30.1094 51.1206C29.994 51.0432 29.6479 50.7916 29.3311 50.5601C29.0198 50.3343 28.5763 49.9413 28.3516 49.6899C28.1268 49.4389 27.6602 48.8912 27.3145 48.479C26.9629 48.0604 26.5243 47.5317 26.3398 47.2935C26.1555 47.0549 25.9311 46.7327 25.8389 46.5718C25.741 46.4108 25.6663 46.2629 25.666 46.2368C25.666 46.2046 25.7926 46.2622 25.9424 46.3589C26.0922 46.449 26.2826 46.5844 26.3633 46.6489C26.4382 46.7197 26.6633 46.8877 26.8535 47.0229C27.0436 47.1646 27.3659 47.3382 27.5732 47.4155C27.7745 47.4861 27.9647 47.5252 27.9941 47.4995C28.0172 47.4673 27.983 47.377 27.9082 47.2935C27.8333 47.2095 27.4525 46.8422 27.0605 46.4878C26.663 46.1273 26.2313 45.7276 26.0928 45.605C25.9602 45.4826 25.7122 45.2634 25.5508 45.1216C25.3836 44.9801 25.0546 44.6772 24.8125 44.439C24.5704 44.2069 24.0869 43.6589 23.7354 43.2144C23.2167 42.5701 22.9222 42.2672 22.1787 41.6489C21.6715 41.2234 21.1472 40.7467 21.0146 40.5854C20.8822 40.4246 20.7207 40.1349 20.6572 39.9546C20.5938 39.7677 20.542 39.5418 20.542 39.4517C20.542 39.3615 20.577 39.2067 20.6289 39.0972C20.6808 38.9687 20.7839 38.878 20.9277 38.8267C21.0487 38.7816 21.389 38.743 21.6943 38.7495C22.1899 38.7495 22.271 38.769 22.8643 39.1294L23.0029 39.7095C23.0779 40.051 23.2219 40.4509 23.3486 40.6763C23.4639 40.8888 23.6484 41.1848 23.7637 41.3267C23.8789 41.4747 24.1272 41.7326 24.3174 41.9067C24.5079 42.0872 25.1996 42.6223 25.8564 43.1118C26.513 43.5949 27.1638 44.0904 27.2969 44.2065C27.4294 44.3224 27.6486 44.5421 27.7754 44.6968C27.9022 44.8449 28.1496 45.1415 28.334 45.354C28.6049 45.6633 28.8072 45.8115 29.4297 46.1597C29.8503 46.3979 30.2304 46.6234 30.2822 46.6685C30.3285 46.7136 30.5766 46.8677 30.8301 47.0161C31.0833 47.164 31.3135 47.2795 31.3486 47.2798C31.3774 47.2798 31.2738 47.132 31.1182 46.9517C30.9567 46.7713 30.519 46.3326 30.1387 45.9849C29.7584 45.6306 29.3259 45.2384 29.1816 45.103C29.0376 44.974 28.8124 44.7291 28.6914 44.5679C28.5768 44.4167 28.3777 44.1438 28.2256 43.936L28.1787 43.8716C28.0173 43.6525 27.7062 43.3247 27.4873 43.144C27.2627 42.9638 26.9804 42.7315 26.8535 42.6284C26.7267 42.5254 26.2304 42.1582 25.7578 41.8101C25.2797 41.4624 24.7442 41.0177 24.5596 40.8179C24.3752 40.6182 24.1389 40.2961 24.0293 40.1157C23.8679 39.8449 23.8272 39.7094 23.8271 39.4712C23.8271 39.2394 23.8563 39.1233 23.9541 39.0142C24.0233 38.9302 24.1906 38.8264 24.3174 38.7876C24.4444 38.7426 24.7785 38.7105 25.0664 38.7104C25.3486 38.7104 25.7115 38.749 25.873 38.8003C26.0287 38.8457 26.3517 38.9942 26.5938 39.1294C26.8301 39.2646 27.1531 39.4777 27.3145 39.6001C27.4702 39.7293 27.8331 40.0514 28.1211 40.3218C28.4033 40.5858 28.7431 40.8946 28.8701 41.0044C28.9969 41.1074 29.343 41.3717 29.6484 41.5776C29.9479 41.7838 30.2819 42.0157 30.3975 42.0933C30.507 42.1706 30.7263 42.3188 30.8877 42.4155C31.0433 42.5119 31.3543 42.7122 31.5791 42.854C31.7981 42.9958 32.2077 43.2335 32.4844 43.3882C32.7609 43.5427 33.1927 43.749 33.4463 43.8521C33.6997 43.9487 33.9249 44.0006 33.9482 43.9751C33.9771 43.9428 33.7749 43.6977 33.5098 43.4272C33.2388 43.1563 32.6337 42.499 32.1611 41.9644C31.6887 41.4364 31.1872 40.8249 31.043 40.6118C30.8989 40.3993 30.7037 40.051 30.6172 39.8384C30.525 39.6258 30.4551 39.3485 30.4551 39.2261C30.4551 39.1036 30.5129 38.8911 30.582 38.7622C30.6626 38.6143 30.7951 38.4787 30.916 38.4272C31.0255 38.3756 31.1532 38.3178 31.2051 38.2983C31.252 38.2794 31.4991 38.2722 31.752 38.2788C32.1554 38.2916 32.2714 38.3239 32.6172 38.5171C32.8361 38.6395 33.1812 38.8848 33.3887 39.0522C33.5962 39.2263 34.2192 39.8644 34.7783 40.4702C35.3544 41.1079 35.9311 41.6817 36.1328 41.8169C36.3229 41.9521 36.6693 42.132 36.9111 42.2222C37.1474 42.3188 37.5212 42.4087 37.7461 42.4282C38.063 42.4539 38.213 42.4345 38.4668 42.3315C38.6741 42.2414 38.859 42.1064 39.0146 41.9194C39.1416 41.7646 39.4757 41.2815 39.7637 40.8433C40.0462 40.4053 40.4207 39.9092 40.5996 39.7417C40.7726 39.5742 41.0957 39.3224 41.3203 39.1743C41.5395 39.0262 41.9543 38.8071 42.2422 38.6782C42.5244 38.5558 42.9453 38.4076 43.1758 38.356C43.4061 38.3047 43.7111 38.2603 43.8555 38.2603ZM30.9775 37.2212C31.0229 37.2152 30.954 37.28 30.8223 37.3579C30.6899 37.4361 30.4304 37.6453 30.252 37.8276C30.0391 38.0362 29.8725 38.2708 29.7861 38.479C29.7171 38.655 29.6422 38.9354 29.6191 39.0981C29.6019 39.2805 29.6192 39.5614 29.6768 39.8286C29.7285 40.076 29.7686 40.2849 29.7686 40.3042C29.7673 40.3236 29.687 40.3364 29.5957 40.3364C29.4921 40.3363 29.3542 40.2646 29.2334 40.1538C29.1356 40.056 28.98 39.9132 28.8994 39.8413C28.8189 39.7761 28.5602 39.5346 28.3242 39.313C28.0882 39.0917 27.7306 38.785 27.5234 38.6353C27.3163 38.4856 26.9714 38.2712 26.7471 38.1538C26.5227 38.0367 26.1659 37.8929 25.9414 37.8276C25.6363 37.7431 25.394 37.7236 24.9336 37.7495C24.5826 37.7692 24.2199 37.8277 24.0703 37.8862C23.9264 37.9452 23.7134 38.0757 23.374 38.3491L22.9307 38.1079C22.6889 37.9712 22.3204 37.8275 22.1133 37.7886C21.9061 37.7494 21.5723 37.7429 21.3652 37.7622C21.1581 37.7885 20.8474 37.873 20.6748 37.9448C20.4964 38.0227 20.2545 38.1988 20.1221 38.3423C19.9494 38.5313 19.8514 38.714 19.7881 38.9683C19.7248 39.2025 19.7022 39.4501 19.7539 40.0103L19.3623 39.978C19.1491 39.9587 18.447 39.913 17.7969 39.8804C17.1467 39.8411 16.1629 39.7633 15.6104 39.7114C15.058 39.6592 14.3671 39.5739 14.085 39.522C13.7972 39.4697 13.3707 39.3986 13.1348 39.353C12.899 39.3138 12.6004 39.235 12.4736 39.1831C12.347 39.1309 12.1972 39.0395 12.1396 38.981C12.0822 38.9221 12.0355 38.8313 12.041 38.7856C12.041 38.7467 12.1797 38.6487 12.3408 38.5835C12.5077 38.5186 13.0081 38.401 13.4512 38.3228C13.8943 38.2446 14.4356 38.1532 14.6602 38.1206C14.8789 38.0817 15.4491 38.0104 15.9268 37.9585C16.3988 37.9062 17.3714 37.8211 18.085 37.7622C18.7985 37.7103 19.7135 37.6327 20.1279 37.6001C20.5366 37.5675 21.8086 37.4887 22.9482 37.4302C24.0878 37.3779 26.3388 37.3061 27.9561 37.2798C29.5674 37.2538 30.9315 37.2279 30.9775 37.2212ZM34.0039 37.2476C34.98 37.2609 37.1044 37.3063 38.7119 37.3452C40.3194 37.3845 41.8699 37.4362 42.6738 37.5015L42.1855 37.6909C41.9155 37.7951 41.4907 37.9967 41.2383 38.1401C40.9855 38.2836 40.6463 38.5116 40.4912 38.6421C40.3306 38.7723 40.073 39.027 39.9121 39.2026C39.7571 39.3787 39.4986 39.6848 39.0566 40.2583L35.8701 40.3364L35.0488 39.4438C34.6009 38.9549 34.0559 38.4073 33.832 38.2183C33.6083 38.0361 33.2987 37.7952 33.1436 37.6909C32.9828 37.5801 32.7123 37.4298 32.54 37.3579L32.2246 37.2212L34.0039 37.2476ZM45.2471 37.6763C45.4129 37.6763 45.9108 37.702 46.3516 37.7407C46.792 37.7795 47.576 37.8511 48.0967 37.9028C48.6174 37.9549 49.5159 38.0913 50.0996 38.2017C50.8031 38.3316 51.2605 38.4485 51.4551 38.5522C51.6268 38.6434 51.7588 38.7533 51.7588 38.812C51.7584 38.8638 51.6497 38.9606 51.5127 39.0317C51.3813 39.1033 51.0784 39.2004 50.8438 39.2524C50.6092 39.3107 50.2201 39.383 49.9854 39.4155C49.751 39.4543 49.2868 39.5256 48.9551 39.5776C48.6232 39.636 47.8505 39.7268 47.2383 39.7788C46.6264 39.8371 45.9855 39.8823 45.8193 39.8823C45.5394 39.8823 45.5226 39.8691 45.5625 39.7329C45.5797 39.6546 45.5967 39.4148 45.5967 39.2007C45.5912 38.9736 45.5395 38.6557 45.4766 38.4546C45.4022 38.2339 45.2763 38.0129 45.1504 37.8833L44.9443 37.6763H45.2471ZM31.3096 32.9399C32.8286 32.9335 35.5847 32.9588 37.4375 32.9907C39.2903 33.0226 41.3739 33.0804 42.0703 33.1187C42.7668 33.1506 44.228 33.2204 45.3213 33.2778C46.4146 33.3289 47.8242 33.4182 48.457 33.4692C49.09 33.5203 50.2928 33.6357 51.1328 33.7251C51.9729 33.8209 52.929 33.9484 53.2627 34.0122C53.596 34.0824 53.9808 34.1658 54.125 34.1978C54.2686 34.2297 54.4938 34.2995 54.626 34.3569C54.8044 34.4335 54.8729 34.4972 54.873 34.5864C54.873 34.6569 54.816 34.7468 54.7412 34.7788C54.6716 34.817 54.384 34.9122 54.0967 35.0015C53.7975 35.0908 53.5502 35.2061 53.5039 35.27C53.4579 35.3463 53.4346 35.6088 53.4346 36.0239C53.4345 36.4129 53.4005 36.783 53.3486 36.981C53.2971 37.1535 53.1988 37.4156 53.124 37.5562C53.0492 37.6967 52.9165 37.8818 52.6807 38.1304L52.4971 38.0093C52.3936 37.9392 52.0936 37.805 51.8232 37.7026C51.5529 37.6006 51.1503 37.4791 50.9316 37.4282C50.7072 37.377 50.0109 37.249 49.3779 37.147C48.7453 37.0449 47.7501 36.9111 47.1631 36.8599C46.5761 36.8025 45.5171 36.7128 44.8037 36.6616C44.09 36.6104 43.0654 36.5403 42.5303 36.5083C41.9891 36.4702 40.4876 36.4062 39.1934 36.3677C37.8985 36.3295 34.7502 36.2983 32.2012 36.2983C29.6522 36.2983 26.4705 36.3295 25.124 36.3677C23.7775 36.4124 22.0165 36.4828 21.2109 36.5337C20.4055 36.5914 19.3529 36.6616 18.8809 36.6997C18.4033 36.7317 17.54 36.8087 16.9531 36.8599C16.3662 36.9111 15.3703 37.0384 14.7373 37.147C14.1048 37.249 13.4437 37.3646 13.2705 37.4028C13.098 37.4413 12.7352 37.543 12.4648 37.6323C12.1944 37.7217 11.8318 37.8692 11.3428 38.1118L11.1816 37.9263C11.0953 37.8304 10.9396 37.5494 10.8418 37.3003C10.6692 36.8918 10.6518 36.783 10.623 36.0425C10.6058 35.6024 10.5827 35.2199 10.5654 35.2065C10.5482 35.1873 10.2774 35.0973 9.96094 35.0015C9.64465 34.9056 9.33976 34.8039 9.28223 34.772C9.23049 34.74 9.18461 34.6698 9.18457 34.6187C9.18457 34.5678 9.24247 34.4783 9.31152 34.4272C9.38679 34.3761 9.72562 34.2675 10.0762 34.1782C10.4212 34.0889 10.8757 33.9866 11.083 33.9546C11.2901 33.9163 12.2342 33.8019 13.1836 33.6997C14.1328 33.5912 15.5713 33.4627 16.377 33.4116C17.1825 33.3542 18.455 33.2839 19.1973 33.2456C19.9396 33.2137 21.1712 33.1501 21.9307 33.1118C22.6904 33.0735 24.4914 33.0221 25.9297 32.9966C27.3682 32.9711 29.7905 32.9463 31.3096 32.9399ZM25.6719 22.6196C25.7583 22.6198 25.8504 22.6777 25.8965 22.7681C25.9426 22.8459 25.9944 23.1559 26.0117 23.4595C26.0348 23.7955 26.1099 24.2093 26.208 24.5259C26.2946 24.8101 26.4618 25.204 26.5771 25.3979C26.6983 25.5918 26.9063 25.8572 27.0391 25.98C27.1775 26.1092 27.3508 26.2573 27.4316 26.3091C27.5124 26.3672 27.7027 26.4708 27.8643 26.5483C28.0201 26.6194 28.2976 26.7226 28.4707 26.7808C28.6437 26.8324 28.9374 26.8971 29.1162 26.9165C29.393 26.9423 29.4628 26.9749 29.5205 27.104C29.584 27.2397 29.578 27.2918 29.5029 27.4146C29.4279 27.5307 29.3299 27.576 29.0127 27.6147C28.7934 27.647 28.459 27.7312 28.2686 27.8022C28.0781 27.8733 27.7776 28.0022 27.6045 28.0991C27.414 28.1961 27.1313 28.4359 26.9062 28.688C26.6986 28.9206 26.4735 29.2304 26.4043 29.3726C26.3408 29.5147 26.2314 29.8058 26.1621 30.019C26.0929 30.2518 26.0241 30.6527 26.001 31.021C25.9721 31.5114 25.9427 31.6664 25.8506 31.7827C25.741 31.9249 25.7174 31.9257 25.5674 31.8481C25.4751 31.8029 25.4001 31.699 25.3828 31.6021C25.3655 31.5113 25.3256 31.1625 25.291 30.8267C25.2564 30.4906 25.158 30.0251 25.083 29.7925C25.0022 29.5598 24.8171 29.1915 24.6729 28.9653C24.517 28.7263 24.2695 28.4545 24.085 28.3188C23.9119 28.1897 23.6521 28.0287 23.5078 27.9575C23.3636 27.8929 23.1615 27.8022 23.0576 27.7505C22.9595 27.6988 22.671 27.6406 22.4229 27.6147C22.1112 27.5824 21.9491 27.5376 21.874 27.4536C21.8221 27.389 21.7764 27.298 21.7764 27.2593C21.7764 27.2141 21.8054 27.1241 21.8457 27.0659C21.8976 26.9884 22.0359 26.9424 22.2666 26.9165C22.457 26.8971 22.7575 26.8331 22.9307 26.7749C23.1038 26.7232 23.4153 26.5875 23.623 26.4712C23.8249 26.3614 24.1363 26.1286 24.3037 25.9478C24.4768 25.7733 24.6908 25.5079 24.7773 25.3657C24.8697 25.2235 25.0081 24.9067 25.0889 24.6548C25.1812 24.3769 25.2681 23.9503 25.3027 23.5562C25.3373 23.2012 25.4001 22.8462 25.4463 22.7681C25.4982 22.6776 25.5853 22.6196 25.6719 22.6196ZM36.7324 14.313C36.8129 14.3068 36.9108 14.3453 36.9512 14.3901C36.986 14.4352 37.0267 14.7056 37.0439 14.9888C37.0557 15.272 37.0954 15.7616 37.1357 16.0835C37.1761 16.4054 37.2686 16.895 37.3438 17.1782C37.419 17.4615 37.6102 17.9824 37.7773 18.3364C37.9388 18.6898 38.0999 19.0372 38.1406 19.1089C38.1813 19.1862 38.3262 19.3988 38.4707 19.5854C38.6152 19.7722 38.9614 20.1201 39.25 20.3647C39.5389 20.6028 39.9486 20.8924 40.1738 21.0083C40.3935 21.1242 40.723 21.2789 40.8965 21.3433C41.0696 21.414 41.3699 21.5164 41.5605 21.5679C41.7508 21.6194 42.1665 21.6972 42.4844 21.7358C42.802 21.7809 43.1201 21.8515 43.1895 21.8901C43.2818 21.9481 43.3223 22.0324 43.3223 22.1675C43.3222 22.3087 43.2874 22.3793 43.1895 22.4243C43.1202 22.4565 42.7214 22.5275 42.3115 22.5854C41.8958 22.6434 41.4164 22.7467 41.2432 22.811C41.0697 22.8754 40.8092 22.9844 40.665 23.0552C40.5205 23.1196 40.2493 23.2618 40.0586 23.3647C39.8679 23.4613 39.5559 23.6804 39.3652 23.8413C39.1745 24.0023 38.8745 24.2919 38.7012 24.4849C38.5222 24.678 38.2854 24.9998 38.1699 25.1929C38.0544 25.3861 37.8525 25.7917 37.7256 26.0942C37.5984 26.3967 37.4303 26.8855 37.3555 27.188C37.2744 27.4905 37.1819 28.0511 37.1416 28.4438C37.1068 28.8365 37.0612 29.3195 37.0381 29.519C37.0095 29.8021 36.968 29.9049 36.8701 29.9692C36.7662 30.0399 36.7199 30.0333 36.6104 29.9497C36.4892 29.8533 36.472 29.7816 36.4316 29.0483C36.4085 28.6109 36.3505 28.0514 36.2988 27.8003C36.2526 27.5493 36.1712 27.1888 36.1191 26.9956C36.0674 26.8026 35.9635 26.4678 35.8828 26.2554C35.8077 26.043 35.577 25.5921 35.375 25.2573C35.1671 24.9033 34.8603 24.4975 34.6465 24.2915C34.4444 24.092 34.1908 23.8533 34.0811 23.7632C33.9714 23.6667 33.694 23.4872 33.4746 23.3521C33.2495 23.2234 33.0068 23.0944 32.9258 23.062C32.8449 23.0363 32.5964 22.9393 32.377 22.8491C32.1228 22.7461 31.6723 22.6494 31.1641 22.5786C30.4825 22.4885 30.3376 22.4504 30.251 22.3345C30.1935 22.2639 30.1478 22.174 30.1475 22.1353C30.1533 22.0966 30.1882 22.0127 30.2344 21.9419C30.3037 21.8389 30.4305 21.8002 30.9443 21.7358C31.2851 21.6972 31.7244 21.6194 31.915 21.5679C32.1056 21.5099 32.4059 21.414 32.5791 21.3433C32.7524 21.2724 33.0526 21.1367 33.2432 21.0337C33.4338 20.9371 33.7689 20.7186 33.9941 20.5513C34.2136 20.3839 34.5655 20.0488 34.7734 19.8042C34.9814 19.5596 35.253 19.186 35.3857 18.98C35.513 18.7675 35.6866 18.4328 35.7676 18.2397C35.8541 18.0465 35.9757 17.6989 36.0449 17.4673C36.1084 17.2355 36.2067 16.8297 36.2529 16.5659C36.3046 16.3018 36.3627 15.7353 36.3799 15.3042C36.4088 14.8023 36.4489 14.4867 36.501 14.4224C36.5414 14.3581 36.6456 14.313 36.7324 14.313ZM28.6836 9.18506C28.7533 9.18518 28.858 9.23638 28.916 9.30029C28.9915 9.37709 29.0204 9.50543 29.0146 9.76123C29.0147 9.95328 29.067 10.3561 29.1367 10.6567C29.2006 10.9575 29.3229 11.3418 29.4043 11.521C29.4856 11.6938 29.613 11.9435 29.6885 12.0649C29.7642 12.1866 30.0029 12.4357 30.2178 12.6147C30.4325 12.7937 30.7048 12.9919 30.8154 13.0562C30.9259 13.1201 31.3566 13.2421 32.5303 13.5044L32.5469 13.728C32.5527 13.8496 32.5299 13.9908 32.4893 14.0356C32.4486 14.074 32.2452 14.1317 32.0361 14.1509C31.8269 14.1701 31.5013 14.2465 31.3096 14.3169C31.1178 14.3873 30.7922 14.5347 30.5889 14.6499C30.3391 14.7843 30.1124 14.9697 29.9033 15.2319C29.729 15.4431 29.5031 15.7893 29.4043 16.0005C29.3055 16.2116 29.1891 16.5439 29.1426 16.7358C29.0961 16.9278 29.0438 17.3437 29.0205 17.6509C28.9973 18.0476 28.9623 18.2272 28.8984 18.272C28.852 18.304 28.7533 18.3354 28.6777 18.3354C28.6082 18.3354 28.5153 18.272 28.4688 18.189C28.4223 18.1122 28.3758 17.7791 28.3525 17.4399C28.3351 17.0753 28.2767 16.7042 28.207 16.5122C28.1489 16.333 28.0207 16.0382 27.9277 15.8462C27.8405 15.6542 27.6194 15.3349 27.4395 15.1431C27.2593 14.9447 26.9693 14.701 26.8008 14.605C26.6265 14.5026 26.3413 14.3682 26.167 14.3042C25.9926 14.2402 25.6787 14.1696 25.4697 14.144C25.2607 14.1184 25.0344 14.0672 24.959 14.0288C24.8777 13.9776 24.8252 13.8948 24.8252 13.7925C24.8252 13.7032 24.8599 13.6012 24.9004 13.5562C24.941 13.5114 25.0693 13.4601 25.1797 13.4409C25.2901 13.4154 25.592 13.3505 25.8477 13.2993C26.1091 13.2417 26.4873 13.1011 26.7197 12.9731C26.9579 12.8388 27.2594 12.5954 27.4453 12.3843C27.6254 12.1859 27.8466 11.8535 27.9512 11.6167C28.05 11.3863 28.1723 11.0919 28.2246 10.9575C28.2769 10.8294 28.3351 10.4387 28.3525 10.0933C28.3758 9.74156 28.4223 9.40933 28.4688 9.33252V9.32568C28.5153 9.24903 28.6082 9.18506 28.6836 9.18506Z" fill="url(#paint0_linear_2963_2670)"/>
<defs>
<linearGradient id="paint0_linear_2963_2670" x1="9.18457" y1="32.0293" x2="54.873" y2="32.0293" gradientUnits="userSpaceOnUse">
<stop stop-color="#78A3ED"/>
<stop offset="0.5" stop-color="#9B6EFD"/>
<stop offset="1" stop-color="#F0768C"/>
</linearGradient>
</defs>
</svg>
